<svg width="80" height="80" viewBox="0 0 80 80" fill="none" xmlns="http://www.w3.org/2000/svg">
<path d="M72.2964 0C73.0056 1.7933e-05 73.5056 0.242031 73.7964 0.726562C74.1505 1.24378 74.1506 1.8392 73.7964 2.51562L48.2583 47.6904V47.7383L64.5083 77.4834C64.8625 78.1272 64.8785 78.7247 64.5572 79.2744C64.2347 79.7581 63.7174 80 63.0083 80H51.4498C50.0957 80 49.031 79.2742 48.2574 77.8232L31.8619 47.7383C32.4425 46.7084 41.0037 31.5195 57.5455 2.17676C58.3506 0.725641 59.383 1.64188e-05 60.6402 0H72.2964ZM23.689 15.7686C24.9779 15.7686 26.0427 16.4943 26.8814 17.9453L34.813 31.7764C34.4897 32.3587 30.3467 39.7105 22.3824 53.833C21.5119 55.3174 20.4624 56.0576 19.2378 56.0576H7.67827C7.00162 56.0576 6.50085 55.7842 6.17925 55.2344C5.85792 54.6882 5.85787 54.1091 6.17925 53.4951L18.4156 31.8252C18.4472 31.8252 18.4472 31.8107 18.4156 31.7764L10.6294 18.2822C10.2428 17.5742 10.2259 16.9777 10.5806 16.4941C10.8712 16.0106 11.3859 15.7686 12.1285 15.7686H23.689Z" fill="black"/>
</svg>
