<svg width="80" height="80" viewBox="0 0 80 80" fill="none" xmlns="http://www.w3.org/2000/svg">
<path fill-rule="evenodd" clip-rule="evenodd" d="M65 60H54.7266V42.502C54.7266 37.7046 52.9036 35.0236 49.1064 35.0236C44.9756 35.0236 42.8174 37.8136 42.8174 42.502V60H32.9167V26.6667H42.8174V31.1567C42.8174 31.1567 45.7943 25.6483 52.8678 25.6483C59.9381 25.6483 65 29.9658 65 38.8954V60ZM21.1051 22.3019C17.7327 22.3019 15 19.5477 15 16.151C15 12.7542 17.7327 10 21.1051 10C24.4775 10 27.2087 12.7542 27.2087 16.151C27.2087 19.5477 24.4775 22.3019 21.1051 22.3019ZM15.9928 60H26.3167V26.6667H15.9928V60Z" fill="#272525"/>
</svg>
