<svg width="80" height="80" viewBox="0 0 80 80" fill="none" xmlns="http://www.w3.org/2000/svg">
<g clip-path="url(#clip0_860_31286)">
<path d="M40.0007 3.33342C30.3789 3.23565 21.1119 6.96211 14.2364 13.6938C7.36094 20.4256 3.43952 29.6117 3.33398 39.2334C3.37106 46.8373 5.81713 54.2338 10.3209 60.3606C14.8246 66.4873 21.1542 71.0291 28.4007 73.3334C30.234 73.6668 30.9007 72.5667 30.9007 71.6001C30.9007 70.6334 30.9007 68.5001 30.9007 65.5001C20.7007 67.6667 18.534 60.7001 18.534 60.7001C17.855 58.5131 16.4114 56.6436 14.4673 55.4334C11.134 53.2334 14.734 53.2667 14.734 53.2667C15.8862 53.4208 16.9885 53.8337 17.9584 54.4745C18.9282 55.1153 19.7404 55.9673 20.334 56.9668C21.3684 58.7605 23.0658 60.0764 25.0607 60.6312C27.0556 61.1861 29.1886 60.9355 31.0007 59.9334C31.187 58.108 32.0136 56.4076 33.334 55.1334C25.2007 54.2334 16.6673 51.1668 16.6673 37.4001C16.5946 33.809 17.9215 30.3305 20.3673 27.7001C19.2534 24.617 19.3849 21.2211 20.734 18.2334C20.734 18.2334 23.834 17.2668 30.734 21.9001C36.7403 20.2995 43.061 20.2995 49.0673 21.9001C56.0673 17.2668 59.0673 18.2334 59.0673 18.2334C60.4164 21.2211 60.5479 24.617 59.434 27.7001C61.9367 30.2822 63.3355 33.7375 63.334 37.3334C63.334 51.1334 54.734 54.1668 46.6673 55.0668C47.5506 55.9243 48.2329 56.9669 48.6652 58.1196C49.0974 59.2724 49.2689 60.5065 49.1673 61.7334V71.5667C49.1673 71.5667 49.834 73.6667 51.6673 73.3001C58.8932 70.9814 65.2015 66.4386 69.6913 60.3206C74.1811 54.2025 76.6227 46.822 76.6673 39.2334C76.5618 29.6117 72.6404 20.4256 65.7649 13.6938C58.8894 6.96211 49.6224 3.23565 40.0007 3.33342Z" fill="#272525"/>
</g>
<defs>
<clipPath id="clip0_860_31286">
<rect width="80" height="80" fill="white"/>
</clipPath>
</defs>
</svg>
